<svg xmlns="http://www.w3.org/2000/svg" version="1.1" xmlns:xlink="http://www.w3.org/1999/xlink" viewBox="0 0 20.213382806522574 6.319607660038204"><g transform="matrix(0.7408084823944914,0,0,0.7408084823944914,3.4385630328201904,2.434306932945102)"><rect width="22.424465345402638" height="22.424465345402638" x="-2.2110825388800652" y="-10.23290142270132" fill="#ffffff"></rect><g transform="matrix(1,0,0,1,0,0)" clip-path="url(#SvgjsClipPath114828)"><g clip-path="url(#SvgjsClipPath11482371713202-4665-4b5f-8896-6755b09c4898)"><path d=" M 16.95329125937304 2.7705001074355455 C 17.03131955745875 2.727880333813877 17.10629539701928 2.6798957964951344 17.17767821301355 2.6268924571056065 L 17.012753802087786 2.3688474604189924 L 17.012753802087786 2.3688474604189924 L 16.991437041491963 2.339677156445723 L 16.935340303081805 2.2544101140623214 L 16.916828379406457 2.2258007774731543 L 16.943193846459238 2.204484016877303 C 17.201419439668516 1.9939360402670192 17.38671515273905 1.7073558060689265 17.472747057050935 1.3854716360893615 C 17.55851635992666 1.0646933865389743 17.540648508861945 0.7250078662980624 17.421699025097663 0.41499806159405916 C 17.370395029563383 0.28051752141010455 17.30093942074908 0.1536855400969923 17.215263027748385 0.03802797947796677 C 17.138928802939738 -0.06604466714781654 17.049992279133356 -0.1602570864342403 16.95048642245256 -0.24245571257269982 L 16.809683609043145 0.029613468716446656 C 16.87993792941736 0.09320751859747078 16.942790109936876 0.16452780727082295 16.997046715332985 0.24222010729085408 C 17.057412780209056 0.32929859720901766 17.106778557707774 0.4235080962523836 17.14402016996752 0.522703799341516 C 17.261834790047008 0.8296937775211788 17.256609975586933 1.1703114894376894 17.12943501798092 1.47354351539327 C 17.008785837619325 1.7634138076052315 16.785771161563012 1.998807095940403 16.502834449939716 2.134924061248738 L 16.68234401285212 2.415407753299401 L 16.738440751262278 2.501235763066904 L 16.761440414010423 2.536576708265288 L 16.723294631891545 2.5556495993247323 C 16.698612066991107 2.56742991439086 16.67392950209062 2.5792102294569896 16.649807904574292 2.5898686097549137 C 16.625686307057965 2.6005269900528383 16.59875987262107 2.611185370350764 16.574638275104697 2.6207218158804864 C 16.13961321020296 2.7873129206606655 15.656152622076874 2.7737881359406447 15.231121390182023 2.583137001145697 C 14.805448048215046 2.3938044002785595 14.472896830034683 2.0424752444596135 14.30720810856714 1.6070537528093842 C 14.290940054428201 1.5649811990017848 14.276915869825675 1.522347677810083 14.264013619991328 1.4791531892342804 C 14.25391620707753 1.4466170809564036 14.24550169631598 1.4135200052944241 14.237648152938569 1.3804229296324477 L 13.935847700292049 1.3944471142349797 C 13.945384145821757 1.4410074071153889 13.956603493503783 1.4875676999958007 13.970066710722197 1.5346889602603122 C 13.986895732245273 1.5941515029750528 14.006529590688801 1.6536140456897948 14.028968286052855 1.713076588404535 C 14.223093915083636 2.2221912529684795 14.611832086996927 2.6331315011592924 15.109391467832047 2.8552061824348436 C 15.606394817787496 3.0778616811965147 16.171611144517083 3.0934051301815773 16.680100143315713 2.8984006710106476 C 16.77369286460218 2.8624550225686285 16.864611763559935 2.8199012286234564 16.952169324604903 2.771061074819645 Z M 15.923916109547116 -1.0743703431949685 C 16.152586731035765 -1.0772413929309113 16.380122726101963 -1.0417837003664305 16.597076970468702 -0.969469442368021 L 16.458518026595677 -0.7013270327675819 C 16.278794541315314 -0.7558864664719673 16.091483160829828 -0.781265359277886 15.903721283719472 -0.7764966622371621 C 15.705217789727612 -0.771171425724134 15.509069263159114 -0.7320934794251814 15.323681008558692 -0.6609373811122874 C 15.010039622303438 -0.5420350746570435 14.737354361301184 -0.3351838266681765 14.538326670816836 -0.06519001919667611 C 14.337267707784266 0.20506496460237633 14.21775098046943 0.5272151009314536 14.193892696978597 0.8632110014910228 L 14.193892696978597 0.9058445226827243 L 14.236526218170317 0.9058445226827243 L 14.33806131469265 0.9013567836099146 L 14.37396322727514 0.9013567836099146 L 14.37396322727514 0.9013567836099146 L 14.670714973464749 0.887893566391482 C 14.664193607816943 0.9741157324523315 14.66663755594427 1.060781892967722 14.678007549458023 1.1464995304621945 C 14.690725991475432 1.247295203808025 14.715589104099548 1.346182583563079 14.75205524415939 1.441007407115387 C 14.870439159690525 1.7517332920394204 15.105277194622674 2.004078532660593 15.406704181405676 2.1444605067784615 C 15.698589421062216 2.281336214182531 16.031436371721234 2.3027778901130045 16.33847100639795 2.2044840168773017 L 16.50339541732376 2.462529013563913 C 16.114510745144507 2.6085044257664927 15.683743484761262 2.595200429891295 15.30460811749923 2.425505166213226 C 14.922201903287341 2.2548140184485876 14.623468909332386 1.938924062003013 14.474376389029244 1.547591210094645 L 14.474376389029244 1.547591210094645 C 14.455303497969805 1.4965431781414233 14.438474476446753 1.4449341788041017 14.424450291844225 1.3927642120826782 C 14.410220147089293 1.340683906090586 14.398797359670926 1.2878769216318906 14.390231281414055 1.2345714097661045 L 14.384621607573052 1.200913366720024 L 14.350963564526973 1.200913366720024 L 14.24998943538873 1.2054011057928338 L 14.163600458237108 1.2093278774815444 L 13.907799331086924 1.2177423882430642 C 13.85559245890505 0.7690272358334931 13.95258518192793 0.3156059696696547 14.183795284064775 -0.07248259518999411 C 14.419395840387068 -0.46995115328727843 14.782901190343786 -0.7757070134793611 15.214853336043085 -0.9397381710106493 C 15.441182076318313 -1.0270473011508945 15.681343423448348 -1.0730275590666154 15.92391610954714 -1.0754922779631704 Z M 17.419455155561252 -0.45394041637889637 C 17.61545938690384 -0.2538116159708518 17.76821444517562 -0.015513725066913286 17.868229062842282 0.24614687897956422 C 18.02036412331674 0.6419008273621181 18.045460946581795 1.0752131665477127 17.94003288800731 1.4858847978435032 C 17.83868798433319 1.8834763054168597 17.620883763029017 2.2417300649431895 17.314554254734308 2.514698980285341 L 17.151873713344905 2.2600197879033375 C 17.401981965286154 2.02453451623415 17.577519158134088 1.7208551726072563 17.65674435903609 1.3865935708575652 C 17.739228278072943 1.0430824357092559 17.71575979089554 0.6826455868094561 17.589428272943927 0.3527306819588192 C 17.52465330263807 0.18385803077057772 17.43441484422875 0.025893433764782037 17.321846830727605 -0.11567708376579389 C 17.209144574810125 -0.2568561756525889 17.07537598528284 -0.3798400274103678 16.925242890167958 -0.48030588343165737 L 16.889901944969584 -0.5038665135639145 L 16.86970711914194 -0.46515976406092463 L 16.823146826261514 -0.37540498260471133 L 16.67000273040184 -0.07921420379921107 C 16.504765694218985 -0.1913130242989305 16.31584934664957 -0.2636925599022485 16.118010824446117 -0.2906989076054134 C 15.906101368180327 -0.3190772313954545 15.690458369661396 -0.29380958130066004 15.49084928902089 -0.2172121802881365 C 15.287519803453685 -0.1399122778031341 15.107346736172046 -0.011879326455087158 14.967466719654311 0.154709195371042 C 14.833732262735705 0.3138779631623507 14.74056995328162 0.5030898437271802 14.69595850574928 0.7061401339426499 L 14.390231281414055 0.7201643185451849 C 14.43469908752373 0.4556176157432532 14.545478614561777 0.2066531734452366 14.712226559888217 -0.003483606945525519 C 14.888268583524486 -0.2249152814633283 15.120843436181715 -0.39469492390309713 15.38538742080985 -0.4948910354182978 C 15.56438127843076 -0.5638928850307937 15.754521703466725 -0.5994491445125191 15.946354804911145 -0.5997919362452466 C 16.13814592926834 -0.599552088053616 16.328271485021517 -0.5641887346835213 16.507322189012463 -0.4954520028023973 L 16.539297329906248 -0.48311072035216984 L 16.555004416661095 -0.5134029590936398 L 16.601564709541524 -0.6037187079339554 L 16.63017404613069 -0.6598154463440896 L 16.63017404613069 -0.6598154463440896 L 16.758074609705808 -0.9066410953486742 C 17.005894202925266 -0.80021893055865 17.23055572979337 -0.6464429745089455 17.419455155561252 -0.4539404163789007 Z" fill="url(#gradient-0102f09a-23e9-43bd-91c8-57b276b4f8bb_0)" transform="matrix(1,0,0,1,0,0)" fill-rule="evenodd"></path></g></g><g><path d=" M 0.4665 0.018000000000000016 L 0.4665 0.7755000000000001 Q 0.4665 0.8115000000000001 0.46425 0.8542500000000001 Q 0.462 0.897 0.447 0.9337500000000001 Q 0.432 0.9705 0.40125 0.9952500000000001 Q 0.3705 1.02 0.3135 1.02 Q 0.264 1.02 0.23175 1.002 Q 0.1995 0.9840000000000001 0.18075 0.9570000000000001 Q 0.162 0.93 0.15375 0.8992500000000001 Q 0.1455 0.8685 0.1455 0.8445 L 0.015 0.8445 Q 0.018000000000000002 0.9600000000000001 0.09 1.0230000000000001 Q 0.162 1.086 0.306 1.086 Q 0.40950000000000003 1.086 0.46950000000000003 1.05525 Q 0.5295 1.0245 0.55875 0.9772500000000001 Q 0.588 0.93 0.5955 0.8745 Q 0.603 0.8190000000000001 0.603 0.7710000000000001 L 0.603 0.018000000000000016 L 0.4665 0.018000000000000016 M 1.544958984375 0.7590000000000001 L 1.688958984375 1.068 L 1.8344589843749999 1.068 L 1.345458984375 0.018000000000000016 L 1.2704589843749998 0.018000000000000016 L 0.826458984375 1.068 L 0.8954589843749999 1.068 L 1.027458984375 0.7590000000000001 L 1.544958984375 0.7590000000000001 M 1.513458984375 0.6915 L 1.055958984375 0.6915 L 1.2719589843749999 0.18600000000000005 L 1.2779589843749999 0.18600000000000005 L 1.513458984375 0.6915 M 2.941450927734375 0.8745 Q 2.7884509277343748 1.0185 2.578450927734375 1.0185 Q 2.461450927734375 1.0185 2.371450927734375 0.9780000000000001 Q 2.281450927734375 0.9375 2.221450927734375 0.8700000000000001 Q 2.161450927734375 0.8025 2.1307009277343747 0.7140000000000001 Q 2.099950927734375 0.6255000000000001 2.099950927734375 0.5295000000000001 Q 2.099950927734375 0.4275000000000001 2.1322009277343748 0.34275 Q 2.164450927734375 0.258 2.222950927734375 0.1965 Q 2.281450927734375 0.135 2.361700927734375 0.10050000000000003 Q 2.441950927734375 0.06600000000000006 2.536450927734375 0.06600000000000006 Q 2.6009509277343748 0.06600000000000006 2.654200927734375 0.08100000000000007 Q 2.707450927734375 0.09600000000000009 2.748700927734375 0.12 Q 2.789950927734375 0.14400000000000002 2.816200927734375 0.17475000000000007 Q 2.842450927734375 0.20550000000000002 2.852950927734375 0.237 L 2.963950927734375 0.237 Q 2.941450927734375 0.18600000000000005 2.9062009277343748 0.14250000000000007 Q 2.8709509277343748 0.09900000000000009 2.818450927734375 0.06750000000000012 Q 2.765950927734375 0.03600000000000003 2.695450927734375 0.018000000000000016 Q 2.6249509277343748 0 2.534950927734375 0 Q 2.404450927734375 0 2.297200927734375 0.03750000000000009 Q 2.1899509277343747 0.07500000000000007 2.113450927734375 0.14475000000000005 Q 2.0369509277343747 0.21450000000000002 1.9949509277343749 0.3127500000000001 Q 1.9529509277343748 0.41100000000000003 1.9529509277343748 0.5325000000000001 Q 1.9529509277343748 0.6375000000000001 1.9867009277343748 0.7372500000000001 Q 2.020450927734375 0.8370000000000001 2.090950927734375 0.91425 Q 2.161450927734375 0.9915 2.2709509277343747 1.03875 Q 2.380450927734375 1.086 2.531950927734375 1.086 Q 2.627950927734375 1.086 2.703700927734375 1.068 Q 2.779450927734375 1.05 2.8357009277343748 1.0237500000000002 Q 2.891950927734375 0.9975 2.9294509277343748 0.9675 Q 2.966950927734375 0.9375 2.986450927734375 0.915 L 2.941450927734375 0.8745 M 3.1949091796875 1.068 L 3.3314091796875 1.068 L 3.3314091796875 0.6990000000000001 L 3.5009091796874996 0.5175000000000001 L 3.8999091796874996 1.068 L 4.0559091796875 1.068 L 3.5879091796875 0.4245000000000001 L 3.9689091796875 0.018000000000000016 L 3.8939091796875 0.018000000000000016 L 3.3314091796875 0.609 L 3.3314091796875 0.018000000000000016 L 3.1949091796875 0.018000000000000016 L 3.1949091796875 1.068 M 4.66787109375 0.018000000000000016 L 5.107371093749999 1.068 L 5.19737109375 1.068 L 5.623371093749999 0.018000000000000016 L 5.54537109375 0.018000000000000016 L 5.19587109375 0.8820000000000001 L 5.18987109375 0.8820000000000001 L 4.82987109375 0.018000000000000016 L 4.66787109375 0.018000000000000016 M 6.295363037109375 0.7590000000000001 L 6.439363037109374 1.068 L 6.584863037109375 1.068 L 6.095863037109375 0.018000000000000016 L 6.0208630371093745 0.018000000000000016 L 5.576863037109375 1.068 L 5.6458630371093745 1.068 L 5.777863037109375 0.7590000000000001 L 6.295363037109375 0.7590000000000001 M 6.263863037109375 0.6915 L 5.806363037109374 0.6915 L 6.022363037109375 0.18600000000000005 L 6.028363037109375 0.18600000000000005 L 6.263863037109375 0.6915 M 7.654354980468749 0.018000000000000016 L 7.654354980468749 0.8205 L 7.648354980468749 0.8205 L 6.81585498046875 0 L 6.808354980468749 0 L 6.808354980468749 1.068 L 6.877354980468749 1.068 L 6.877354980468749 0.26550000000000007 L 6.8833549804687495 0.26550000000000007 L 7.71585498046875 1.086 L 7.723354980468749 1.086 L 7.723354980468749 0.018000000000000016 L 7.654354980468749 0.018000000000000016 M 8.470318359375 1.068 L 8.470318359375 0.10050000000000003 L 8.872318359374999 0.10050000000000003 L 8.872318359374999 0.018000000000000016 L 7.931818359375 0.018000000000000016 L 7.931818359375 0.10050000000000003 L 8.333818359375 0.10050000000000003 L 8.333818359375 1.068 L 8.470318359375 1.068 M 9.48431396484375 0.7590000000000001 L 9.62831396484375 1.068 L 9.77381396484375 1.068 L 9.28481396484375 0.018000000000000016 L 9.20981396484375 0.018000000000000016 L 8.76581396484375 1.068 L 8.83481396484375 1.068 L 8.96681396484375 0.7590000000000001 L 9.48431396484375 0.7590000000000001 M 9.452813964843749 0.6915 L 8.99531396484375 0.6915 L 9.21131396484375 0.18600000000000005 L 9.217313964843749 0.18600000000000005 L 9.452813964843749 0.6915 M 9.872805908203125 0.8025 Q 9.875805908203125 0.867 9.906555908203124 0.9195000000000001 Q 9.937305908203124 0.9720000000000001 9.990555908203124 1.00875 Q 10.043805908203124 1.0455 10.115805908203125 1.06575 Q 10.187805908203124 1.086 10.273305908203124 1.086 Q 10.360305908203124 1.086 10.430055908203125 1.0650000000000002 Q 10.499805908203124 1.044 10.549305908203124 1.0050000000000001 Q 10.598805908203124 0.9660000000000001 10.625805908203125 0.9105000000000001 Q 10.652805908203124 0.8550000000000001 10.652805908203124 0.7875000000000001 Q 10.652805908203124 0.6945000000000001 10.606305908203124 0.6352500000000001 Q 10.559805908203124 0.5760000000000001 10.490055908203125 0.53625 Q 10.420305908203124 0.49650000000000005 10.338555908203125 0.46950000000000003 Q 10.256805908203125 0.4425 10.187055908203124 0.4125000000000001 Q 10.117305908203125 0.38250000000000006 10.070805908203125 0.3435 Q 10.024305908203125 0.3045 10.024305908203125 0.24 Q 10.024305908203125 0.20400000000000007 10.040055908203124 0.1725 Q 10.055805908203125 0.14100000000000001 10.086555908203124 0.11775000000000002 Q 10.117305908203125 0.09450000000000003 10.162305908203125 0.08025000000000004 Q 10.207305908203125 0.06600000000000006 10.265805908203124 0.06600000000000006 Q 10.363305908203124 0.06600000000000006 10.431555908203125 0.10725000000000007 Q 10.499805908203124 0.14850000000000008 10.511805908203124 0.237 L 10.613805908203124 0.237 Q 10.604805908203124 0.1815 10.573305908203125 0.1372500000000001 Q 10.541805908203125 0.09300000000000008 10.493805908203125 0.06225000000000014 Q 10.445805908203125 0.031500000000000083 10.385055908203125 0.01574999999999993 Q 10.324305908203124 0 10.258305908203125 0 Q 10.189305908203124 0 10.127055908203124 0.018000000000000016 Q 10.064805908203125 0.03600000000000003 10.017555908203125 0.07050000000000001 Q 9.970305908203125 0.1050000000000001 9.942555908203124 0.15750000000000008 Q 9.914805908203125 0.21000000000000008 9.914805908203125 0.2775000000000001 Q 9.914805908203125 0.366 9.959805908203125 0.42000000000000004 Q 10.004805908203124 0.4740000000000001 10.073055908203125 0.51 Q 10.141305908203124 0.546 10.220805908203124 0.5715000000000001 Q 10.300305908203125 0.597 10.368555908203124 0.6292500000000001 Q 10.436805908203125 0.6615 10.481805908203125 0.7080000000000001 Q 10.526805908203125 0.7545000000000001 10.526805908203125 0.8325 Q 10.526805908203125 0.93 10.455555908203124 0.9750000000000001 Q 10.384305908203125 1.02 10.265805908203124 1.02 Q 10.171305908203124 1.02 10.114305908203125 0.9952500000000001 Q 10.057305908203125 0.9705 10.027305908203125 0.936 Q 9.997305908203124 0.9015000000000001 9.986805908203124 0.86475 Q 9.976305908203125 0.8280000000000001 9.974805908203125 0.8025 L 9.872805908203125 0.8025 M 10.808805908203125 0.8025 Q 10.811805908203125 0.867 10.842555908203124 0.9195000000000001 Q 10.873305908203124 0.9720000000000001 10.926555908203124 1.00875 Q 10.979805908203124 1.0455 11.051805908203125 1.06575 Q 11.123805908203124 1.086 11.209305908203124 1.086 Q 11.296305908203124 1.086 11.366055908203125 1.0650000000000002 Q 11.435805908203124 1.044 11.485305908203124 1.0050000000000001 Q 11.534805908203124 0.9660000000000001 11.561805908203125 0.9105000000000001 Q 11.588805908203124 0.8550000000000001 11.588805908203124 0.7875000000000001 Q 11.588805908203124 0.6945000000000001 11.542305908203124 0.6352500000000001 Q 11.495805908203124 0.5760000000000001 11.426055908203125 0.53625 Q 11.356305908203124 0.49650000000000005 11.274555908203125 0.46950000000000003 Q 11.192805908203125 0.4425 11.123055908203124 0.4125000000000001 Q 11.053305908203125 0.38250000000000006 11.006805908203125 0.3435 Q 10.960305908203125 0.3045 10.960305908203125 0.24 Q 10.960305908203125 0.20400000000000007 10.976055908203124 0.1725 Q 10.991805908203125 0.14100000000000001 11.022555908203124 0.11775000000000002 Q 11.053305908203125 0.09450000000000003 11.098305908203125 0.08025000000000004 Q 11.143305908203125 0.06600000000000006 11.201805908203124 0.06600000000000006 Q 11.299305908203124 0.06600000000000006 11.367555908203125 0.10725000000000007 Q 11.435805908203124 0.14850000000000008 11.447805908203124 0.237 L 11.549805908203124 0.237 Q 11.540805908203124 0.1815 11.509305908203125 0.1372500000000001 Q 11.477805908203125 0.09300000000000008 11.429805908203125 0.06225000000000014 Q 11.381805908203125 0.031500000000000083 11.321055908203125 0.01574999999999993 Q 11.260305908203124 0 11.194305908203125 0 Q 11.125305908203124 0 11.063055908203124 0.018000000000000016 Q 11.000805908203125 0.03600000000000003 10.953555908203125 0.07050000000000001 Q 10.906305908203125 0.1050000000000001 10.878555908203124 0.15750000000000008 Q 10.850805908203125 0.21000000000000008 10.850805908203125 0.2775000000000001 Q 10.850805908203125 0.366 10.895805908203124 0.42000000000000004 Q 10.940805908203124 0.4740000000000001 11.009055908203125 0.51 Q 11.077305908203124 0.546 11.156805908203124 0.5715000000000001 Q 11.236305908203125 0.597 11.304555908203124 0.6292500000000001 Q 11.372805908203125 0.6615 11.417805908203125 0.7080000000000001 Q 11.462805908203125 0.7545000000000001 11.462805908203125 0.8325 Q 11.462805908203125 0.93 11.391555908203124 0.9750000000000001 Q 11.320305908203125 1.02 11.201805908203124 1.02 Q 11.107305908203124 1.02 11.050305908203125 0.9952500000000001 Q 10.993305908203125 0.9705 10.963305908203125 0.936 Q 10.933305908203124 0.9015000000000001 10.922805908203124 0.86475 Q 10.912305908203125 0.8280000000000001 10.910805908203125 0.8025 L 10.808805908203125 0.8025 M 11.869305908203124 0.018000000000000016 L 11.869305908203124 1.068 L 12.547305908203125 1.068 L 12.547305908203125 0.9855 L 12.005805908203124 0.9855 L 12.005805908203124 0.546 L 12.470805908203124 0.546 L 12.470805908203124 0.4770000000000001 L 12.005805908203124 0.4770000000000001 L 12.005805908203124 0.10050000000000003 L 12.547305908203125 0.10050000000000003 L 12.547305908203125 0.018000000000000016 L 11.869305908203124 0.018000000000000016 M 12.770790527343749 1.068 L 12.770790527343749 0.018000000000000016 L 12.907290527343749 0.018000000000000016 L 12.907290527343749 0.9855 L 13.44879052734375 0.9855 L 13.44879052734375 1.068 L 12.770790527343749 1.068" fill="#173054" fill-rule="nonzero"></path></g><g><path d=" M 3.4955906982421854 1.4344124999999996 L 3.4955906982421854 1.7644124999999997 Q 3.4955906982421854 1.8424124999999998 3.532715698242185 1.8799124999999997 Q 3.569840698242185 1.9174124999999997 3.6343406982421853 1.9174124999999997 Q 3.698840698242185 1.9174124999999997 3.735215698242185 1.8802874999999997 Q 3.771590698242185 1.8431624999999998 3.771590698242185 1.7644124999999997 L 3.771590698242185 1.4344124999999996 L 3.8240906982421854 1.4344124999999996 L 3.8240906982421854 1.7636624999999997 Q 3.8240906982421854 1.8634124999999997 3.771215698242185 1.9136624999999998 Q 3.7183406982421854 1.9639124999999997 3.6335906982421853 1.9639124999999997 Q 3.548840698242185 1.9639124999999997 3.4959656982421854 1.9136624999999998 Q 3.443090698242185 1.8634124999999997 3.443090698242185 1.7636624999999997 L 3.443090698242185 1.4344124999999996 L 3.4955906982421854 1.4344124999999996 M 4.23397375488281 1.6939124999999997 Q 4.18972375488281 1.7351624999999997 4.1012237548828105 1.7351624999999997 L 3.99547375488281 1.7351624999999997 L 3.99547375488281 1.9586624999999998 L 3.9429737548828103 1.9586624999999998 L 3.9429737548828103 1.4344124999999996 L 4.1012237548828105 1.4344124999999996 Q 4.18897375488281 1.4344124999999996 4.23359875488281 1.4756624999999999 Q 4.27822375488281 1.5169124999999997 4.27822375488281 1.5851624999999998 Q 4.27822375488281 1.6526624999999997 4.23397375488281 1.6939124999999997 M 4.22422375488281 1.5851624999999998 Q 4.22422375488281 1.5326624999999998 4.1949737548828105 1.5056624999999997 Q 4.16572375488281 1.4786624999999998 4.1012237548828105 1.4786624999999998 L 3.99547375488281 1.4786624999999998 L 3.99547375488281 1.6901624999999998 L 4.1012237548828105 1.6901624999999998 Q 4.22422375488281 1.6901624999999998 4.22422375488281 1.5851624999999998 M 4.878983276367185 1.8341624999999997 L 4.640483276367186 1.8341624999999997 L 4.594733276367186 1.9586624999999998 L 4.539233276367185 1.9586624999999998 L 4.730483276367186 1.4411625 L 4.789733276367185 1.4411625 L 4.980233276367185 1.9586624999999998 L 4.924733276367186 1.9586624999999998 L 4.878983276367185 1.8341624999999997 M 4.863233276367185 1.7906624999999998 L 4.759733276367186 1.5071624999999997 L 4.656233276367185 1.7906624999999998 L 4.863233276367185 1.7906624999999998 M 5.461341430664061 1.9586624999999998 L 5.408841430664061 1.9586624999999998 L 5.11859143066406 1.5176624999999997 L 5.11859143066406 1.9586624999999998 L 5.06609143066406 1.9586624999999998 L 5.06609143066406 1.4344124999999996 L 5.11859143066406 1.4344124999999996 L 5.408841430664061 1.8746624999999997 L 5.408841430664061 1.4344124999999996 L 5.461341430664061 1.4344124999999996 L 5.461341430664061 1.9586624999999998 M 5.886947021484373 1.4659124999999997 Q 5.949197021484373 1.4974124999999998 5.982197021484373 1.5566624999999998 Q 6.015197021484373 1.6159124999999999 6.015197021484373 1.6976624999999999 Q 6.015197021484373 1.7786624999999998 5.982197021484373 1.8375374999999998 Q 5.949197021484373 1.8964124999999998 5.886947021484373 1.9275374999999997 Q 5.824697021484373 1.9586624999999998 5.737697021484373 1.9586624999999998 L 5.582447021484373 1.9586624999999998 L 5.582447021484373 1.4344124999999996 L 5.737697021484373 1.4344124999999996 Q 5.824697021484373 1.4344124999999996 5.886947021484373 1.4659124999999997 M 5.904572021484373 1.8577874999999997 Q 5.961947021484373 1.8004124999999997 5.961947021484373 1.6976624999999999 Q 5.961947021484373 1.5941624999999997 5.904572021484373 1.5360374999999997 Q 5.847197021484373 1.4779124999999997 5.737697021484373 1.4779124999999997 L 5.634947021484373 1.4779124999999997 L 5.634947021484373 1.9151624999999997 L 5.737697021484373 1.9151624999999997 Q 5.847197021484373 1.9151624999999997 5.904572021484373 1.8577874999999997 M 6.330932373046873 1.5577874999999999 Q 6.364682373046874 1.4966624999999998 6.423182373046873 1.4625374999999998 Q 6.481682373046874 1.4284124999999999 6.553682373046874 1.4284124999999999 Q 6.641432373046873 1.4284124999999999 6.704057373046873 1.4700374999999997 Q 6.766682373046873 1.5116624999999997 6.795182373046873 1.5874124999999997 L 6.733682373046873 1.5874124999999997 Q 6.711182373046873 1.5341624999999999 6.665057373046873 1.5041624999999996 Q 6.618932373046873 1.4741624999999998 6.553682373046874 1.4741624999999998 Q 6.495932373046873 1.4741624999999998 6.449807373046873 1.5011624999999997 Q 6.403682373046873 1.5281624999999996 6.377432373046873 1.5787874999999998 Q 6.351182373046873 1.6294124999999997 6.351182373046873 1.6961624999999998 Q 6.351182373046873 1.7629124999999997 6.377432373046873 1.8131624999999998 Q 6.403682373046873 1.8634124999999997 6.449807373046873 1.8904124999999998 Q 6.495932373046873 1.9174124999999997 6.553682373046874 1.9174124999999997 Q 6.618932373046873 1.9174124999999997 6.665057373046873 1.8877874999999997 Q 6.711182373046873 1.8581624999999997 6.733682373046873 1.8056624999999997 L 6.795182373046873 1.8056624999999997 Q 6.766682373046873 1.8806624999999997 6.703682373046873 1.9219124999999997 Q 6.640682373046873 1.9631624999999997 6.553682373046874 1.9631624999999997 Q 6.481682373046874 1.9631624999999997 6.423182373046873 1.9290374999999997 Q 6.364682373046874 1.8949124999999998 6.330932373046873 1.8341624999999997 Q 6.297182373046873 1.7734124999999998 6.297182373046873 1.6961624999999998 Q 6.297182373046873 1.6189124999999998 6.330932373046873 1.5577874999999999 M 7.004804443359373 1.9297874999999998 Q 6.945554443359374 1.8956624999999998 6.911429443359373 1.8345374999999997 Q 6.877304443359373 1.7734124999999998 6.877304443359373 1.6961624999999998 Q 6.877304443359373 1.6189124999999998 6.911429443359373 1.5577874999999999 Q 6.945554443359374 1.4966624999999998 7.004804443359373 1.4625374999999998 Q 7.064054443359373 1.4284124999999999 7.136804443359373 1.4284124999999999 Q 7.210304443359373 1.4284124999999999 7.2695544433593735 1.4625374999999998 Q 7.328804443359373 1.4966624999999998 7.3625544433593735 1.5577874999999999 Q 7.396304443359373 1.6189124999999998 7.396304443359373 1.6961624999999998 Q 7.396304443359373 1.7734124999999998 7.3625544433593735 1.8345374999999997 Q 7.328804443359373 1.8956624999999998 7.2695544433593735 1.9297874999999998 Q 7.210304443359373 1.9639124999999997 7.136804443359373 1.9639124999999997 Q 7.064054443359373 1.9639124999999997 7.004804443359373 1.9297874999999998 M 7.241804443359373 1.8911624999999996 Q 7.288304443359373 1.8641624999999997 7.3153044433593735 1.8135374999999998 Q 7.342304443359374 1.7629124999999997 7.342304443359374 1.6961624999999998 Q 7.342304443359374 1.6294124999999997 7.3153044433593735 1.5791624999999998 Q 7.288304443359373 1.5289124999999997 7.241804443359373 1.5019124999999998 Q 7.195304443359373 1.4749124999999998 7.136804443359373 1.4749124999999998 Q 7.078304443359373 1.4749124999999998 7.031804443359373 1.5019124999999998 Q 6.985304443359373 1.5289124999999997 6.958304443359373 1.5791624999999998 Q 6.931304443359373 1.6294124999999997 6.931304443359373 1.6961624999999998 Q 6.931304443359373 1.7629124999999997 6.958304443359373 1.8135374999999998 Q 6.985304443359373 1.8641624999999997 7.031804443359373 1.8911624999999996 Q 7.078304443359373 1.9181624999999998 7.136804443359373 1.9181624999999998 Q 7.195304443359373 1.9181624999999998 7.241804443359373 1.8911624999999996 M 8.006448120117186 1.4411625 L 8.006448120117186 1.9586624999999998 L 7.953948120117186 1.9586624999999998 L 7.953948120117186 1.5454124999999999 L 7.769448120117186 1.9586624999999998 L 7.7311981201171855 1.9586624999999998 L 7.546698120117186 1.5469124999999997 L 7.546698120117186 1.9586624999999998 L 7.4941981201171854 1.9586624999999998 L 7.4941981201171854 1.4411625 L 7.549698120117186 1.4411625 L 7.749948120117186 1.8896624999999998 L 7.950198120117186 1.4411625 L 8.006448120117186 1.4411625 M 8.18005810546875 1.4344124999999996 L 8.18005810546875 1.9586624999999998 L 8.127558105468749 1.9586624999999998 L 8.127558105468749 1.4344124999999996 L 8.18005810546875 1.4344124999999996 M 8.696436035156248 1.9586624999999998 L 8.643936035156248 1.9586624999999998 L 8.35368603515625 1.5176624999999997 L 8.35368603515625 1.9586624999999998 L 8.301186035156249 1.9586624999999998 L 8.301186035156249 1.4344124999999996 L 8.35368603515625 1.4344124999999996 L 8.643936035156248 1.8746624999999997 L 8.643936035156248 1.4344124999999996 L 8.696436035156248 1.4344124999999996 L 8.696436035156248 1.9586624999999998 M 9.230041625976561 1.5874124999999997 Q 9.20754162597656 1.5356624999999997 9.16141662597656 1.5060374999999997 Q 9.11529162597656 1.4764124999999997 9.053041625976562 1.4764124999999997 Q 8.994541625976561 1.4764124999999997 8.948041625976561 1.5034124999999998 Q 8.901541625976561 1.5304124999999997 8.874541625976562 1.5802874999999998 Q 8.847541625976561 1.6301624999999997 8.847541625976561 1.6961624999999998 Q 8.847541625976561 1.7621624999999996 8.874541625976562 1.8124124999999998 Q 8.901541625976561 1.8626624999999997 8.948041625976561 1.8896624999999998 Q 8.994541625976561 1.9166624999999997 9.053041625976562 1.9166624999999997 Q 9.107791625976562 1.9166624999999997 9.151666625976562 1.8930374999999997 Q 9.195541625976562 1.8694124999999997 9.222166625976561 1.8255374999999998 Q 9.248791625976562 1.7816624999999997 9.25254162597656 1.7231624999999997 L 9.03204162597656 1.7231624999999997 L 9.03204162597656 1.6804124999999996 L 9.30804162597656 1.6804124999999996 L 9.30804162597656 1.7186624999999998 Q 9.30429162597656 1.7876624999999997 9.270541625976561 1.8435374999999998 Q 9.236791625976561 1.8994124999999997 9.180166625976561 1.9316624999999998 Q 9.12354162597656 1.9639124999999997 9.053041625976562 1.9639124999999997 Q 8.98029162597656 1.9639124999999997 8.921041625976562 1.9297874999999998 Q 8.861791625976561 1.8956624999999998 8.827666625976562 1.8345374999999997 Q 8.79354162597656 1.7734124999999998 8.79354162597656 1.6961624999999998 Q 8.79354162597656 1.6189124999999998 8.827666625976562 1.5577874999999999 Q 8.861791625976561 1.4966624999999998 8.921041625976562 1.4625374999999998 Q 8.98029162597656 1.4284124999999999 9.053041625976562 1.4284124999999999 Q 9.137041625976561 1.4284124999999999 9.200041625976562 1.4704124999999997 Q 9.26304162597656 1.5124124999999997 9.291541625976562 1.5874124999999997 L 9.230041625976561 1.5874124999999997 M 9.917768554687498 1.4659124999999997 Q 9.980018554687499 1.4974124999999998 10.013018554687498 1.5566624999999998 Q 10.0460185546875 1.6159124999999999 10.0460185546875 1.6976624999999999 Q 10.0460185546875 1.7786624999999998 10.013018554687498 1.8375374999999998 Q 9.980018554687499 1.8964124999999998 9.917768554687498 1.9275374999999997 Q 9.8555185546875 1.9586624999999998 9.768518554687498 1.9586624999999998 L 9.6132685546875 1.9586624999999998 L 9.6132685546875 1.4344124999999996 L 9.768518554687498 1.4344124999999996 Q 9.8555185546875 1.4344124999999996 9.917768554687498 1.4659124999999997 M 9.935393554687499 1.8577874999999997 Q 9.9927685546875 1.8004124999999997 9.9927685546875 1.6976624999999999 Q 9.9927685546875 1.5941624999999997 9.935393554687499 1.5360374999999997 Q 9.878018554687499 1.4779124999999997 9.768518554687498 1.4779124999999997 L 9.6657685546875 1.4779124999999997 L 9.6657685546875 1.9151624999999997 L 9.768518554687498 1.9151624999999997 Q 9.878018554687499 1.9151624999999997 9.935393554687499 1.8577874999999997 M 10.197138793945312 1.4771624999999997 L 10.197138793945312 1.6729124999999998 L 10.39588879394531 1.6729124999999998 L 10.39588879394531 1.7164124999999997 L 10.197138793945312 1.7164124999999997 L 10.197138793945312 1.9151624999999997 L 10.418388793945311 1.9151624999999997 L 10.418388793945311 1.9586624999999998 L 10.144638793945312 1.9586624999999998 L 10.144638793945312 1.4336624999999996 L 10.418388793945311 1.4336624999999996 L 10.418388793945311 1.4771624999999997 L 10.197138793945312 1.4771624999999997 M 10.939256835937499 1.4344124999999996 L 10.740506835937499 1.9586624999999998 L 10.680506835937498 1.9586624999999998 L 10.4817568359375 1.4344124999999996 L 10.538756835937498 1.4344124999999996 L 10.7105068359375 1.9016624999999998 L 10.883756835937499 1.4344124999999996 L 10.939256835937499 1.4344124999999996 M 11.072379272460937 1.4771624999999997 L 11.072379272460937 1.6729124999999998 L 11.271129272460936 1.6729124999999998 L 11.271129272460936 1.7164124999999997 L 11.072379272460937 1.7164124999999997 L 11.072379272460937 1.9151624999999997 L 11.293629272460937 1.9151624999999997 L 11.293629272460937 1.9586624999999998 L 11.019879272460937 1.9586624999999998 L 11.019879272460937 1.4336624999999996 L 11.293629272460937 1.4336624999999996 L 11.293629272460937 1.4771624999999997 L 11.072379272460937 1.4771624999999997 M 11.451497314453125 1.9159124999999997 L 11.639747314453125 1.9159124999999997 L 11.639747314453125 1.9586624999999998 L 11.398997314453124 1.9586624999999998 L 11.398997314453124 1.4344124999999996 L 11.451497314453125 1.4344124999999996 L 11.451497314453125 1.9159124999999997 M 11.8201376953125 1.9297874999999998 Q 11.7608876953125 1.8956624999999998 11.7267626953125 1.8345374999999997 Q 11.692637695312499 1.7734124999999998 11.692637695312499 1.6961624999999998 Q 11.692637695312499 1.6189124999999998 11.7267626953125 1.5577874999999999 Q 11.7608876953125 1.4966624999999998 11.8201376953125 1.4625374999999998 Q 11.879387695312499 1.4284124999999999 11.9521376953125 1.4284124999999999 Q 12.025637695312499 1.4284124999999999 12.0848876953125 1.4625374999999998 Q 12.1441376953125 1.4966624999999998 12.1778876953125 1.5577874999999999 Q 12.211637695312499 1.6189124999999998 12.211637695312499 1.6961624999999998 Q 12.211637695312499 1.7734124999999998 12.1778876953125 1.8345374999999997 Q 12.1441376953125 1.8956624999999998 12.0848876953125 1.9297874999999998 Q 12.025637695312499 1.9639124999999997 11.9521376953125 1.9639124999999997 Q 11.879387695312499 1.9639124999999997 11.8201376953125 1.9297874999999998 M 12.057137695312498 1.8911624999999996 Q 12.103637695312498 1.8641624999999997 12.1306376953125 1.8135374999999998 Q 12.157637695312498 1.7629124999999997 12.157637695312498 1.6961624999999998 Q 12.157637695312498 1.6294124999999997 12.1306376953125 1.5791624999999998 Q 12.103637695312498 1.5289124999999997 12.057137695312498 1.5019124999999998 Q 12.010637695312498 1.4749124999999998 11.9521376953125 1.4749124999999998 Q 11.8936376953125 1.4749124999999998 11.8471376953125 1.5019124999999998 Q 11.8006376953125 1.5289124999999997 11.7736376953125 1.5791624999999998 Q 11.746637695312499 1.6294124999999997 11.746637695312499 1.6961624999999998 Q 11.746637695312499 1.7629124999999997 11.7736376953125 1.8135374999999998 Q 11.8006376953125 1.8641624999999997 11.8471376953125 1.8911624999999996 Q 11.8936376953125 1.9181624999999998 11.9521376953125 1.9181624999999998 Q 12.010637695312498 1.9181624999999998 12.057137695312498 1.8911624999999996 M 12.600531372070312 1.6939124999999997 Q 12.55628137207031 1.7351624999999997 12.467781372070311 1.7351624999999997 L 12.362031372070312 1.7351624999999997 L 12.362031372070312 1.9586624999999998 L 12.309531372070312 1.9586624999999998 L 12.309531372070312 1.4344124999999996 L 12.467781372070311 1.4344124999999996 Q 12.55553137207031 1.4344124999999996 12.600156372070312 1.4756624999999999 Q 12.644781372070312 1.5169124999999997 12.644781372070312 1.5851624999999998 Q 12.644781372070312 1.6526624999999997 12.600531372070312 1.6939124999999997 M 12.590781372070312 1.5851624999999998 Q 12.590781372070312 1.5326624999999998 12.561531372070311 1.5056624999999997 Q 12.532281372070312 1.4786624999999998 12.467781372070311 1.4786624999999998 L 12.362031372070312 1.4786624999999998 L 12.362031372070312 1.6901624999999998 L 12.467781372070311 1.6901624999999998 Q 12.590781372070312 1.6901624999999998 12.590781372070312 1.5851624999999998 M 12.78692578125 1.4771624999999997 L 12.78692578125 1.6729124999999998 L 12.985675781249999 1.6729124999999998 L 12.985675781249999 1.7164124999999997 L 12.78692578125 1.7164124999999997 L 12.78692578125 1.9151624999999997 L 13.00817578125 1.9151624999999997 L 13.00817578125 1.9586624999999998 L 12.73442578125 1.9586624999999998 L 12.73442578125 1.4336624999999996 L 13.00817578125 1.4336624999999996 L 13.00817578125 1.4771624999999997 L 12.78692578125 1.4771624999999997 M 13.392543823242187 1.9586624999999998 L 13.262793823242188 1.7396624999999997 L 13.166043823242187 1.7396624999999997 L 13.166043823242187 1.9586624999999998 L 13.113543823242187 1.9586624999999998 L 13.113543823242187 1.4344124999999996 L 13.271043823242186 1.4344124999999996 Q 13.358793823242188 1.4344124999999996 13.404168823242188 1.4764124999999997 Q 13.449543823242188 1.5184124999999997 13.449543823242188 1.5866624999999996 Q 13.449543823242188 1.6436624999999998 13.416918823242186 1.6837874999999998 Q 13.384293823242187 1.7239124999999997 13.320543823242186 1.7359124999999997 L 13.455543823242186 1.9586624999999998 L 13.392543823242187 1.9586624999999998 M 13.166043823242187 1.6969124999999998 L 13.271793823242186 1.6969124999999998 Q 13.333293823242187 1.6969124999999998 13.364418823242186 1.6669124999999998 Q 13.395543823242187 1.6369124999999998 13.395543823242187 1.5866624999999996 Q 13.395543823242187 1.5349124999999997 13.365543823242186 1.5067874999999997 Q 13.335543823242187 1.4786624999999998 13.271043823242186 1.4786624999999998 L 13.166043823242187 1.4786624999999998 L 13.166043823242187 1.6969124999999998" fill="#225777" fill-rule="nonzero"></path></g></g><defs><clipPath id="SvgjsClipPath114828"><path d=" M 13.893775146484373 -1.0749313105790694 h 4.108525121158139 v 4.108525121158139 h -4.108525121158139 Z"></path></clipPath><clipPath id="SvgjsClipPath11482371713202-4665-4b5f-8896-6755b09c4898"><path d=" M 13.893775146484373 -1.0749313105790694 L 18.00230026764251 -1.0749313105790694 L 18.00230026764251 3.0335938105790694 L 13.893775146484373 3.0335938105790694 Z"></path></clipPath><linearGradient id="gradient-0102f09a-23e9-43bd-91c8-57b276b4f8bb_0" x1="0" x2="1" y1="0" y2="1"><stop stop-color="#225777" offset="0"></stop><stop stop-color="#173054" offset="1"></stop></linearGradient></defs></svg>